<svg width="152" height="152" viewBox="0 0 152 152" fill="none" xmlns="http://www.w3.org/2000/svg">
<g clip-path="url(#clip0_636_3)">
<path d="M76 152C117.974 152 152 117.974 152 76C152 34.0264 117.974 0 76 0C34.0264 0 0 34.0264 0 76C0 117.974 34.0264 152 76 152Z" fill="white"/>
<path d="M79.6073 67.7316L79.6485 67.6472C80.6957 65.7962 82.6222 64.6615 85.0522 64.6615C88.1111 64.6615 90.3787 66.5027 91.0948 69.2081H95.3543C94.9331 66.7887 93.7351 64.6413 92.0049 63.1046L91.9631 63.0626C90.1205 61.4224 87.7329 60.4551 85.0099 60.4551C83.0416 60.4551 81.1987 61.0021 79.6485 61.9273L79.6073 61.9694C77.0652 63.5075 75.2803 66.1234 74.749 69.2081H79.0113C79.152 68.6818 79.3502 68.1869 79.6073 67.7316Z" fill="#040606"/>
<path d="M62.3262 44.2252V50.8981H65.4958H79.9194V46.7926H77.3621L78.2971 44.2252L81.8573 34.5425L84.2447 28H79.8885L77.5011 34.5425L73.9409 44.2252L73.0062 46.7926H69.7199H69.6992H66.5147V44.2252V34.5425V28H62.3262V34.5425V44.2252Z" fill="#040606"/>
<path d="M107.331 59.5149C105.601 57.0638 103.54 54.9035 101.192 53.0814C96.814 49.6844 92.2302 48.0602 88.4325 47.3105V28H84.244V50.8979H84.4894L84.4879 50.9164C88.1519 51.2088 93.5892 52.3875 98.6838 56.3408C101.001 58.1382 102.994 60.3193 104.609 62.823L105.301 63.896L133.569 60.6251L133.463 67.1099L138.894 66.811L138.892 72.6125L103.549 93.7634L101.675 118.927H28.8915L60.8252 32.2578L62.3252 28H57.9691L23 123.046H105.482L107.486 96.1336L142.993 74.9573L143 55.3878L107.331 59.5149Z" fill="#040606"/>
<path d="M93.9033 79.123L90.9258 81.9565C92.9812 84.1344 95.4092 85.8495 98.142 87.0548C100.769 88.2133 103.556 88.8456 106.427 88.9336L106.552 84.8163C104.209 84.7445 101.935 84.2289 99.7915 83.2835C97.5622 82.3002 95.5811 80.9006 93.9033 79.123Z" fill="#040606"/>
</g>
<defs>
<clipPath id="clip0_636_3">
<rect width="152" height="152" fill="white"/>
</clipPath>
</defs>
</svg>
