<svg width="1112" height="396" viewBox="0 0 1112 396" fill="none" xmlns="http://www.w3.org/2000/svg">
<path d="M79.8389 69.9746H35.2832V142.484H76.2988V157.743H35.2832V246H18.3154V54.96H79.8389V69.9746ZM183.965 232.45C183.965 236.438 182.663 239.693 180.059 242.216C177.536 244.739 174.281 246 170.293 246H116.826C112.839 246 109.583 244.739 107.061 242.216C104.538 239.693 103.276 236.438 103.276 232.45V68.5098C103.276 64.5221 104.538 61.2669 107.061 58.7441C109.583 56.2214 112.839 54.96 116.826 54.96H170.293C174.281 54.96 177.536 56.2214 180.059 58.7441C182.663 61.2669 183.965 64.5221 183.965 68.5098V232.45ZM166.997 230.985V69.9746H120.244V230.985H166.997ZM295.293 232.45C295.293 236.438 293.991 239.693 291.387 242.216C288.864 244.739 285.609 246 281.621 246H228.154C224.167 246 220.911 244.739 218.389 242.216C215.866 239.693 214.604 236.438 214.604 232.45V68.5098C214.604 64.5221 215.866 61.2669 218.389 58.7441C220.911 56.2214 224.167 54.96 228.154 54.96H281.621C285.609 54.96 288.864 56.2214 291.387 58.7441C293.991 61.2669 295.293 64.5221 295.293 68.5098V232.45ZM278.325 230.985V69.9746H231.572V230.985H278.325ZM404.668 211.454C404.668 221.545 401.331 229.846 394.658 236.356C388.066 242.785 379.725 246 369.634 246H325.933V54.96H369.634C379.806 54.96 388.188 58.2152 394.78 64.7256C401.372 71.1546 404.668 79.4147 404.668 89.5059V211.454ZM387.7 209.745V90.9707C387.7 84.7044 385.706 79.6589 381.719 75.834C377.812 71.9277 372.726 69.9746 366.46 69.9746H342.9V230.985H365.483C372.075 230.985 377.406 229.114 381.475 225.37C385.625 221.545 387.7 216.337 387.7 209.745ZM558.11 232.45C558.11 236.438 556.849 239.693 554.326 242.216C551.885 244.739 548.67 246 544.683 246H496.587C492.599 246 489.303 244.739 486.699 242.216C484.176 239.693 482.915 236.438 482.915 232.45V183.988H499.883V230.985H541.143V185.453L488.408 121.732C484.746 117.338 482.915 112.496 482.915 107.206V68.5098C482.915 64.5221 484.176 61.2669 486.699 58.7441C489.303 56.2214 492.599 54.96 496.587 54.96H544.683C548.67 54.96 551.885 56.2214 554.326 58.7441C556.849 61.2669 558.11 64.5221 558.11 68.5098V112.943H541.143V69.9746H499.883V110.258L552.861 173.979C556.361 178.21 558.11 182.971 558.11 188.261V232.45ZM650.884 246H588.14V54.96H650.151V69.9746H605.107V141.264H646.123V156.522H605.107V230.985H650.884V246ZM758.794 246H740.972L705.449 143.705L707.769 140.287H738.042V69.9746H694.463V246H677.495V54.96H741.46C745.448 54.96 748.703 56.2214 751.226 58.7441C753.748 61.2669 755.01 64.5221 755.01 68.5098V141.02C755.01 150.215 748.825 154.813 736.455 154.813C735.234 154.813 733.444 154.773 731.084 154.691C728.724 154.529 727.015 154.447 725.957 154.447C736.943 184.883 747.889 215.401 758.794 246ZM858.77 54.96L825.688 246.488H809.697L776.616 54.96H793.462L817.144 207.06C817.144 207.06 817.388 211.21 817.876 219.511C817.957 216.662 818.242 212.512 818.73 207.06L842.412 54.96H858.77ZM899.785 246H882.817V54.96H899.785V246ZM1008.18 232.45C1008.18 236.438 1006.88 239.693 1004.28 242.216C1001.67 244.739 998.377 246 994.39 246H945.195C941.208 246 937.952 244.739 935.43 242.216C932.907 239.693 931.646 236.438 931.646 232.45V68.5098C931.646 64.5221 932.907 61.2669 935.43 58.7441C937.952 56.2214 941.208 54.96 945.195 54.96H994.39C998.377 54.96 1001.67 56.2214 1004.28 58.7441C1006.88 61.2669 1008.18 64.5221 1008.18 68.5098V112.943H991.094V69.9746H948.613V230.985H991.094V183.988H1008.18V232.45ZM1100.59 246H1037.85V54.96H1099.86V69.9746H1054.81V141.264H1095.83V156.522H1054.81V230.985H1100.59V246Z" fill="black"/>
<path d="M85.5847 327.836C85.5847 328.935 85.3493 330.065 84.8784 331.226C84.4389 332.388 83.6698 333.33 82.5711 334.052C80.3109 335.527 77.7995 336.987 75.037 338.431C72.3059 339.875 69.4178 341.241 66.3728 342.528C63.3591 343.783 60.2199 344.945 56.9551 346.012C53.7218 347.079 50.4727 347.99 47.2079 348.743C43.9431 349.528 40.694 350.14 37.4607 350.58C34.2587 351.019 31.1508 351.239 28.1372 351.239C24.1818 351.239 20.7601 350.815 17.872 349.968C15.0153 349.12 12.6452 347.754 10.7617 345.871C9.78852 344.866 8.95663 343.768 8.266 342.575C7.57538 341.35 7.01032 340.11 6.57083 338.855C6.16273 337.599 5.86451 336.375 5.67616 335.182C5.4878 333.958 5.39363 332.843 5.39363 331.839C5.39363 330.269 5.62907 328.621 6.09995 326.894C6.60222 325.136 7.24576 323.363 8.03056 321.573C8.84676 319.753 9.77283 317.948 10.8088 316.158C11.8447 314.338 12.9277 312.595 14.0578 310.931C15.188 309.236 16.3024 307.651 17.4011 306.176C18.5312 304.669 19.5672 303.319 20.5089 302.126C21.3879 301.059 22.4552 299.85 23.7109 298.5C24.9666 297.15 26.3479 295.738 27.8547 294.262C29.3929 292.787 31.0096 291.311 32.7047 289.836C34.4313 288.329 36.1736 286.901 37.9315 285.551C39.6895 284.201 41.4474 282.961 43.2054 281.831C44.9948 280.701 46.6899 279.775 48.2909 279.053C48.7932 278.802 49.4995 278.551 50.4099 278.299C51.3517 278.017 52.3091 277.75 53.2823 277.499C54.2868 277.248 55.2443 277.044 56.1546 276.887C57.0964 276.73 57.8184 276.651 58.3207 276.651C61.2716 276.651 63.8143 277.091 65.949 277.97C68.0836 278.849 69.8259 279.995 71.1758 281.407C72.557 282.788 73.5773 284.327 74.2365 286.022C74.8957 287.717 75.2253 289.396 75.2253 291.06C75.2253 292.096 75.0527 293.305 74.7074 294.686C74.4876 295.628 74.0638 296.617 73.436 297.653C72.8081 298.657 72.0547 299.583 71.1758 300.431C70.3282 301.278 69.3864 301.985 68.3505 302.55C67.3145 303.083 66.2943 303.35 65.2897 303.35C64.8189 303.35 64.3323 303.256 63.83 303.068C63.3277 302.848 62.8569 302.55 62.4174 302.173C62.0093 301.765 61.664 301.278 61.3814 300.713C61.1303 300.148 61.0047 299.52 61.0047 298.83C61.0047 298.422 61.1303 297.982 61.3814 297.511C61.664 297.04 61.9622 296.475 62.2761 295.816C62.6214 295.126 62.9196 294.309 63.1708 293.368C63.4533 292.426 63.5946 291.296 63.5946 289.977C63.5946 288.91 63.1708 288.251 62.3232 288C61.4756 287.717 60.11 287.576 58.2265 287.576C56.5941 287.576 54.7577 288.015 52.7172 288.894C50.7081 289.773 48.6048 290.966 46.4074 292.473C44.21 293.98 41.9811 295.753 39.7209 297.794C37.4607 299.834 35.2632 302.016 33.1285 304.339C31.0253 306.662 29.0319 309.079 27.1483 311.591C25.2962 314.071 23.6795 316.519 22.2983 318.936C20.917 321.354 19.8183 323.692 19.0021 325.953C18.2173 328.181 17.8249 330.206 17.8249 332.027C17.8249 334.224 18.2958 335.935 19.2375 337.16C20.1793 338.352 21.3565 339.247 22.7692 339.844C24.2132 340.409 25.7671 340.754 27.4309 340.88C29.0947 340.974 30.6486 341.021 32.0926 341.021C35.3574 341.021 38.7006 340.738 42.1224 340.173C45.5441 339.608 48.8717 338.902 52.1051 338.054C55.3698 337.175 58.4306 336.233 61.2872 335.229C64.1439 334.193 66.6082 333.22 68.6801 332.309C70.0927 331.682 71.317 331.101 72.353 330.567C73.4203 330.002 74.4091 329.468 75.3195 328.966C76.1357 328.527 76.8577 328.134 77.4856 327.789C78.1448 327.412 78.7883 327.114 79.4162 326.894C80.0754 326.643 80.7503 326.455 81.441 326.329C82.163 326.204 82.9635 326.141 83.8425 326.141C84.2506 326.141 84.643 326.345 85.0197 326.753C85.3964 327.13 85.5847 327.491 85.5847 327.836ZM173.31 317.1C172.839 318.23 171.96 319.768 170.673 321.715C169.386 323.661 167.785 325.764 165.87 328.024C163.986 330.253 161.852 332.514 159.466 334.805C157.08 337.097 154.569 339.169 151.932 341.021C149.295 342.873 146.58 344.395 143.786 345.588C141.023 346.75 138.292 347.331 135.592 347.331C134.305 347.331 133.191 347.032 132.249 346.436C131.307 345.808 130.523 344.992 129.895 343.987C129.267 342.951 128.796 341.806 128.482 340.55C128.199 339.263 128.058 337.96 128.058 336.642C128.058 336.108 128.105 335.37 128.199 334.428C128.325 333.455 128.482 332.357 128.67 331.132C128.859 329.908 129.078 328.59 129.33 327.177C129.581 325.764 129.832 324.32 130.083 322.845C130.334 321.495 130.585 320.145 130.836 318.795C131.088 317.445 131.323 316.158 131.543 314.934C131.794 313.678 131.998 312.532 132.155 311.497C132.312 310.429 132.406 309.519 132.437 308.765C132.061 308.797 131.637 308.922 131.166 309.142C130.695 309.33 130.146 309.786 129.518 310.508C128.922 311.23 128.231 312.281 127.446 313.663C126.693 315.012 125.814 316.849 124.809 319.172C124.181 320.616 123.506 322.123 122.784 323.692C122.062 325.262 121.262 326.832 120.383 328.401C119.535 329.971 118.578 331.509 117.51 333.016C116.475 334.523 115.313 335.951 114.026 337.301C111.891 339.498 109.506 341.146 106.869 342.245C104.232 343.312 101.595 343.846 98.9578 343.846C97.2626 343.846 95.7244 343.548 94.3431 342.951C92.9619 342.355 91.7847 341.57 90.8115 340.597C89.8384 339.592 89.085 338.447 88.5513 337.16C88.0176 335.872 87.7508 334.538 87.7508 333.157C87.7508 331.901 87.8921 330.85 88.1746 330.002C88.4571 329.123 88.8338 328.433 89.3047 327.93C89.7756 327.397 90.3092 327.02 90.9057 326.8C91.5021 326.58 92.13 326.471 92.7892 326.471C94.2333 326.471 95.4262 326.879 96.3679 327.695C97.3097 328.511 97.8433 329.814 97.9689 331.603C98.0317 332.294 98.22 332.843 98.534 333.251C98.8479 333.659 99.2089 333.973 99.617 334.193C100.025 334.413 100.417 334.554 100.794 334.617C101.202 334.68 101.501 334.711 101.689 334.711C103.541 334.711 105.55 333.565 107.716 331.274C109.914 328.982 112.19 325.482 114.544 320.773C115.894 318.073 117.04 315.766 117.981 313.851C118.923 311.936 119.771 310.304 120.524 308.954C121.278 307.573 121.968 306.411 122.596 305.469C123.255 304.527 123.962 303.68 124.715 302.926C125.939 301.702 127.43 300.776 129.188 300.148C130.978 299.52 132.846 299.207 134.792 299.207C135.326 299.207 136 299.285 136.817 299.442C137.664 299.568 138.48 299.803 139.265 300.148C140.081 300.494 140.788 300.964 141.384 301.561C142.012 302.126 142.357 302.864 142.42 303.774C142.42 304.119 142.31 304.857 142.09 305.987C141.902 307.086 141.651 308.436 141.337 310.037C141.023 311.638 140.678 313.396 140.301 315.311C139.956 317.194 139.626 319.109 139.312 321.055C138.998 323.002 138.732 324.885 138.512 326.706C138.323 328.495 138.229 330.081 138.229 331.462C138.229 332.937 138.276 334.115 138.371 334.994C138.465 335.872 138.606 336.547 138.794 337.018C138.983 337.458 139.218 337.756 139.501 337.913C139.783 338.039 140.128 338.101 140.537 338.101C141.667 338.101 143.048 337.662 144.68 336.783C146.344 335.904 148.133 334.695 150.048 333.157C151.995 331.619 154.019 329.83 156.123 327.789C158.257 325.749 160.376 323.567 162.48 321.244C163.327 320.302 164.159 319.407 164.975 318.56C165.792 317.681 166.545 316.912 167.236 316.252C167.958 315.562 168.633 315.028 169.26 314.651C169.888 314.243 170.438 314.039 170.908 314.039C171.536 314.039 172.117 314.29 172.651 314.793C173.184 315.264 173.451 315.86 173.451 316.582L173.31 317.1ZM210.039 334.758C209.379 337.426 208.705 339.985 208.014 342.433C207.323 344.851 206.617 347.111 205.895 349.214C205.173 351.317 204.42 353.232 203.635 354.959C202.881 356.717 202.112 358.224 201.327 359.479C200.291 360.923 199.067 362.226 197.655 363.388C196.273 364.581 194.751 365.601 193.087 366.448C191.455 367.296 189.728 367.955 187.907 368.426C186.087 368.897 184.234 369.132 182.351 369.132C180.436 369.132 178.678 368.975 177.077 368.662C175.476 368.348 173.953 367.877 172.509 367.249C171.097 366.621 169.747 365.821 168.46 364.847C167.173 363.906 165.886 362.776 164.599 361.457C162.809 359.354 161.915 357.847 161.915 356.937C161.915 356.56 161.993 356.12 162.15 355.618C162.307 355.116 162.542 354.629 162.856 354.158C163.17 353.719 163.563 353.326 164.034 352.981C164.536 352.667 165.117 352.51 165.776 352.51C166.247 352.51 166.843 352.667 167.565 352.981C168.319 353.326 168.946 353.75 169.449 354.253C170.296 355.1 171.175 355.869 172.086 356.56C173.027 357.282 174.032 357.894 175.099 358.396C176.198 358.93 177.375 359.338 178.631 359.621C179.918 359.903 181.331 360.044 182.869 360.044C183.654 360.044 184.47 359.919 185.317 359.668C186.196 359.417 187.06 359.056 187.907 358.585C188.755 358.145 189.571 357.612 190.356 356.984C191.141 356.356 191.831 355.665 192.428 354.912C192.93 354.284 193.448 353.436 193.982 352.369C194.515 351.333 195.049 350.172 195.583 348.885C196.116 347.597 196.634 346.232 197.137 344.788C197.639 343.344 198.11 341.9 198.549 340.456C199.02 339.012 199.444 337.615 199.821 336.265C200.197 334.915 200.527 333.691 200.809 332.592C200.119 333.314 199.271 334.083 198.267 334.899C197.262 335.716 196.148 336.516 194.923 337.301C193.73 338.086 192.475 338.839 191.156 339.561C189.838 340.283 188.519 340.927 187.201 341.492C185.882 342.025 184.595 342.449 183.34 342.763C182.115 343.077 180.985 343.234 179.949 343.234C178.034 343.234 176.276 342.889 174.675 342.198C173.106 341.476 171.74 340.534 170.579 339.373C169.449 338.18 168.57 336.83 167.942 335.323C167.314 333.816 167 332.262 167 330.661C167 329.72 167.079 328.715 167.236 327.648C167.393 326.549 167.597 325.388 167.848 324.163C168.036 323.221 168.334 322.029 168.742 320.585C169.182 319.109 169.637 317.602 170.108 316.064C170.579 314.494 171.034 312.988 171.474 311.544C171.913 310.1 172.258 308.907 172.509 307.965C172.855 306.678 173.184 305.563 173.498 304.622C173.844 303.648 174.236 302.848 174.675 302.22C175.115 301.561 175.633 301.074 176.229 300.76C176.826 300.447 177.564 300.29 178.443 300.29C179.949 300.29 181.158 300.792 182.068 301.796C183.01 302.801 183.481 304.057 183.481 305.563C183.481 306.756 183.23 308.216 182.728 309.943C182.225 311.638 181.566 313.647 180.75 315.97C180.373 317.069 179.981 318.246 179.573 319.502C179.196 320.726 178.851 321.919 178.537 323.08C178.223 324.21 177.956 325.246 177.736 326.188C177.548 327.13 177.454 327.883 177.454 328.448C177.454 330.3 177.783 331.697 178.443 332.639C179.102 333.549 180.044 334.005 181.268 334.005C182.649 334.005 184.093 333.785 185.6 333.345C187.107 332.906 188.598 332.294 190.073 331.509C191.58 330.693 193.04 329.735 194.453 328.637C195.897 327.538 197.231 326.345 198.455 325.058C199.711 323.771 200.825 322.405 201.798 320.961C202.771 319.517 203.556 318.042 204.153 316.535C204.184 316.441 204.31 316.033 204.529 315.311C204.749 314.557 205.016 313.647 205.33 312.58C205.675 311.481 206.021 310.319 206.366 309.095C206.743 307.839 207.088 306.678 207.402 305.611C207.747 304.512 208.03 303.586 208.249 302.832C208.469 302.048 208.595 301.608 208.626 301.514C208.752 301.106 208.971 300.682 209.285 300.242C209.599 299.803 209.96 299.411 210.368 299.065C210.808 298.72 211.263 298.437 211.734 298.218C212.205 297.967 212.644 297.841 213.052 297.841C213.994 297.841 214.795 297.998 215.454 298.312C216.144 298.626 216.694 299.05 217.102 299.583C217.541 300.117 217.855 300.713 218.044 301.373C218.263 302.032 218.373 302.722 218.373 303.444C218.373 304.072 218.263 304.92 218.044 305.987C217.855 307.023 217.573 308.216 217.196 309.566C216.851 310.884 216.443 312.313 215.972 313.851C215.532 315.389 215.061 316.99 214.559 318.654C213.774 321.197 212.99 323.849 212.205 326.612C211.42 329.343 210.698 332.058 210.039 334.758ZM347.913 309.896C347.913 310.586 347.473 311.559 346.594 312.815C345.747 314.039 344.632 315.405 343.251 316.912C341.87 318.387 340.332 319.941 338.636 321.573C336.941 323.206 335.246 324.744 333.551 326.188C331.887 327.632 330.317 328.919 328.842 330.049C327.398 331.179 326.237 332.011 325.358 332.545C323.788 333.487 322.328 334.35 320.978 335.135C319.66 335.92 318.373 336.626 317.117 337.254C315.861 337.882 314.606 338.431 313.35 338.902C312.126 339.373 310.823 339.765 309.442 340.079C308.06 340.362 306.569 340.581 304.968 340.738C303.367 340.895 301.578 340.974 299.6 340.974C297.905 340.974 296.21 340.66 294.515 340.032C292.851 339.404 291.328 338.462 289.947 337.207C288.597 335.951 287.499 334.366 286.651 332.451C285.803 330.504 285.38 328.244 285.38 325.67C285.38 325.293 285.38 324.932 285.38 324.587C285.38 324.21 285.411 323.818 285.474 323.41C285.317 323.504 285.066 323.692 284.72 323.975C284.407 324.226 284.077 324.493 283.732 324.775C283.386 325.058 283.041 325.34 282.696 325.623C282.382 325.874 282.146 326.062 281.989 326.188C280.922 327.098 279.808 328.15 278.646 329.343C277.516 330.536 276.464 331.76 275.491 333.016C274.549 334.271 273.749 335.511 273.09 336.736C272.43 337.96 272.054 339.059 271.96 340.032C271.834 341.131 271.599 342.041 271.253 342.763C270.939 343.485 270.563 344.066 270.123 344.505C269.715 344.913 269.276 345.196 268.805 345.353C268.334 345.51 267.91 345.588 267.533 345.588C266.372 345.588 265.461 345.431 264.802 345.117C264.143 344.772 263.656 344.317 263.342 343.752C263.029 343.187 262.824 342.543 262.73 341.821C262.668 341.099 262.636 340.346 262.636 339.561C262.636 339.216 262.699 338.557 262.824 337.583C262.981 336.61 263.185 335.574 263.437 334.476C263.97 331.933 264.457 329.531 264.896 327.271C265.336 325.011 265.634 322.892 265.791 320.914C263.217 323.174 260.706 325.497 258.257 327.883C255.84 330.269 253.501 332.545 251.241 334.711C249.671 336.186 248.054 337.819 246.391 339.608C244.758 341.397 243.016 343.234 241.164 345.117C240.881 345.431 240.505 345.761 240.034 346.106C239.563 346.452 239.076 346.766 238.574 347.048C238.103 347.331 237.664 347.566 237.256 347.754C236.879 347.943 236.612 348.037 236.455 348.037C235.984 348.037 235.482 347.896 234.948 347.613C234.415 347.362 233.912 347.017 233.441 346.577C233.002 346.138 232.625 345.651 232.311 345.117C232.029 344.552 231.888 344.003 231.888 343.469C231.888 343.187 231.966 342.857 232.123 342.481C232.311 342.072 232.531 341.649 232.782 341.209C233.065 340.738 233.379 340.267 233.724 339.796C234.101 339.294 234.477 338.823 234.854 338.384C235.482 337.568 236.126 336.767 236.785 335.982C237.444 335.166 238.103 334.35 238.762 333.534C239.422 332.718 240.05 331.87 240.646 330.991C241.242 330.112 241.76 329.17 242.2 328.166C242.545 327.412 242.859 326.565 243.142 325.623C243.456 324.681 243.722 323.739 243.942 322.798C244.193 321.825 244.382 320.883 244.507 319.972C244.664 319.062 244.743 318.262 244.743 317.571C244.743 316.409 244.617 315.248 244.366 314.086C244.146 312.893 243.754 311.826 243.189 310.884C242.624 309.911 241.886 309.126 240.976 308.53C240.065 307.934 238.951 307.635 237.632 307.635C236.565 307.635 235.498 307.918 234.43 308.483C233.363 309.017 232.5 309.644 231.84 310.366C231.15 311.088 230.444 311.559 229.722 311.779C228.999 311.967 228.325 312.062 227.697 312.062C227.414 312.062 227.053 311.936 226.614 311.685C226.174 311.434 225.845 311.026 225.625 310.461C225.342 309.896 225.201 309.221 225.201 308.436C225.201 307.463 225.546 306.395 226.237 305.234C226.928 304.072 227.901 303.005 229.156 302.032C230.444 301.027 231.966 300.195 233.724 299.536C235.513 298.846 237.491 298.5 239.657 298.5C242.325 298.5 244.586 299.034 246.438 300.101C248.29 301.137 249.797 302.44 250.958 304.01C252.151 305.548 253.014 307.227 253.548 309.048C254.082 310.869 254.349 312.532 254.349 314.039C254.349 315.954 254.207 317.508 253.925 318.701C253.642 319.863 253.47 320.71 253.407 321.244C254.663 320.145 256.012 318.905 257.456 317.524C258.9 316.143 260.297 314.746 261.647 313.333C262.997 311.92 264.253 310.555 265.414 309.236C266.576 307.886 267.502 306.709 268.193 305.705C268.349 305.422 268.522 305.171 268.71 304.951C268.899 304.732 269.072 304.433 269.228 304.057C269.354 303.492 269.527 302.926 269.746 302.361C269.966 301.796 270.264 301.294 270.641 300.855C271.018 300.384 271.489 300.007 272.054 299.724C272.65 299.411 273.388 299.254 274.267 299.254C275.428 299.254 276.433 299.552 277.281 300.148C278.128 300.713 278.552 301.639 278.552 302.926C278.552 303.805 278.395 304.873 278.081 306.128C277.767 307.384 277.485 308.624 277.233 309.848C277.014 310.79 276.731 311.873 276.386 313.098C276.072 314.322 275.742 315.546 275.397 316.77C275.083 317.995 274.801 319.156 274.549 320.255C274.298 321.322 274.141 322.201 274.079 322.892C275.271 321.95 276.527 320.898 277.846 319.737C279.164 318.575 280.483 317.383 281.801 316.158C283.119 314.934 284.407 313.725 285.662 312.532C286.949 311.308 288.174 310.178 289.335 309.142C290.026 308.514 290.622 307.934 291.124 307.4C291.658 306.866 292.16 306.38 292.631 305.94C293.228 305.375 293.777 304.857 294.279 304.386C294.813 303.915 295.347 303.46 295.88 303.021C296.445 302.581 297.042 302.157 297.67 301.749C298.298 301.31 299.02 300.87 299.836 300.431C300.338 300.148 300.982 299.897 301.766 299.677C302.551 299.458 303.352 299.269 304.168 299.112C305.015 298.955 305.832 298.846 306.616 298.783C307.433 298.689 308.092 298.641 308.594 298.641C309.63 298.641 310.556 298.861 311.372 299.301C312.189 299.709 312.911 300.242 313.538 300.902C314.166 301.53 314.7 302.252 315.139 303.068C315.579 303.853 315.924 304.637 316.175 305.422C316.458 306.176 316.662 306.882 316.787 307.541C316.913 308.169 316.976 308.656 316.976 309.001C316.976 309.535 316.866 310.115 316.646 310.743C316.458 311.371 316.175 311.967 315.799 312.532C315.422 313.066 314.967 313.521 314.433 313.898C313.931 314.275 313.35 314.463 312.691 314.463C311.78 314.463 311.043 314.306 310.478 313.992C309.944 313.647 309.52 313.254 309.206 312.815C308.892 312.375 308.673 311.936 308.547 311.497C308.421 311.026 308.327 310.649 308.265 310.366C308.139 309.676 307.762 309.064 307.134 308.53C306.538 307.996 305.926 307.729 305.298 307.729C304.199 307.729 302.991 308.153 301.672 309.001C300.354 309.848 299.129 310.931 297.999 312.25C296.869 313.537 295.912 314.965 295.127 316.535C294.374 318.105 293.997 319.627 293.997 321.103C293.997 322.39 294.169 323.708 294.515 325.058C294.86 326.376 295.347 327.585 295.975 328.684C296.602 329.751 297.356 330.63 298.235 331.321C299.114 332.011 300.103 332.357 301.201 332.357C303.336 332.357 305.345 332.184 307.229 331.839C309.112 331.493 310.854 331.054 312.455 330.52C314.056 329.986 315.485 329.406 316.74 328.778C318.027 328.119 319.126 327.491 320.037 326.894C322.579 325.199 325.169 323.378 327.806 321.432C330.474 319.486 332.907 317.555 335.105 315.64C336.109 314.793 337.161 313.882 338.26 312.909C339.358 311.905 340.394 310.979 341.367 310.131C342.372 309.283 343.251 308.577 344.004 308.012C344.758 307.447 345.26 307.164 345.511 307.164C346.233 307.164 346.814 307.431 347.254 307.965C347.693 308.467 347.913 309.111 347.913 309.896ZM361.192 317.288C361.192 316.064 361.145 315.028 361.05 314.181C360.988 313.302 360.893 312.564 360.768 311.967C360.642 311.34 360.485 310.822 360.297 310.413C360.14 309.974 359.983 309.582 359.826 309.236C359.23 309.236 358.351 309.315 357.189 309.472C356.059 309.597 354.819 309.927 353.469 310.461C351.994 311.057 350.565 311.952 349.184 313.145C347.803 314.338 346.579 315.719 345.511 317.288C344.444 318.858 343.581 320.585 342.921 322.468C342.294 324.32 341.98 326.251 341.98 328.26C341.98 329.641 342.105 330.928 342.356 332.121C342.607 333.314 342.937 334.366 343.345 335.276C343.785 336.155 344.287 336.846 344.852 337.348C345.417 337.85 345.998 338.101 346.594 338.101C347.222 338.101 347.944 337.897 348.76 337.489C349.608 337.05 350.456 336.516 351.303 335.888C352.151 335.229 352.967 334.523 353.752 333.769C354.536 333.016 355.164 332.294 355.635 331.603C356.232 330.756 356.86 329.751 357.519 328.59C358.178 327.428 358.774 326.204 359.308 324.917C359.842 323.63 360.281 322.327 360.627 321.008C361.003 319.69 361.192 318.45 361.192 317.288ZM348.478 293.32C347.473 292.504 346.626 291.798 345.935 291.202C345.276 290.574 344.679 289.93 344.146 289.271C343.738 288.8 343.408 288.172 343.157 287.387C342.906 286.603 342.78 285.928 342.78 285.363C342.78 284.641 342.937 283.981 343.251 283.385C343.565 282.757 343.942 282.192 344.381 281.69C344.821 281.187 345.292 280.779 345.794 280.465C346.296 280.12 346.736 279.9 347.112 279.806C347.363 279.743 347.724 279.681 348.195 279.618C348.666 279.524 349.184 279.445 349.749 279.382C350.314 279.32 350.864 279.273 351.397 279.241C351.962 279.178 352.418 279.131 352.763 279.1C354.113 278.974 355.431 278.849 356.718 278.723C358.005 278.566 359.292 278.378 360.579 278.158C361.898 277.938 363.232 277.672 364.582 277.358C365.932 277.012 367.344 276.573 368.82 276.039C369.385 275.819 370.091 275.584 370.939 275.333C371.818 275.082 372.618 274.956 373.34 274.956C374.157 274.956 374.8 275.16 375.271 275.568C375.742 275.945 375.977 276.589 375.977 277.499C375.977 278.001 375.82 278.551 375.506 279.147C375.224 279.743 374.847 280.324 374.376 280.889C373.937 281.454 373.435 281.972 372.869 282.443C372.304 282.914 371.755 283.291 371.221 283.573C369.966 284.201 368.679 284.688 367.36 285.033C366.073 285.378 364.519 285.661 362.698 285.881C361.6 286.006 360.579 286.1 359.638 286.163C358.727 286.226 357.911 286.289 357.189 286.351C356.467 286.414 355.855 286.508 355.353 286.634C354.882 286.728 354.552 286.885 354.364 287.105C355.839 287.984 357.362 289.145 358.931 290.589C360.501 292.033 361.961 293.587 363.311 295.251C364.692 296.915 365.9 298.61 366.936 300.337C368.004 302.063 368.757 303.633 369.197 305.045C369.542 306.113 369.824 307.117 370.044 308.059C370.264 308.969 370.437 309.88 370.562 310.79C370.688 311.669 370.766 312.564 370.798 313.474C370.86 314.385 370.892 315.373 370.892 316.441C370.892 318.858 370.531 321.307 369.809 323.787C369.087 326.266 368.098 328.652 366.842 330.944C365.618 333.204 364.158 335.323 362.463 337.301C360.799 339.279 358.994 341.005 357.048 342.481C355.133 343.956 353.124 345.117 351.021 345.965C348.949 346.813 346.893 347.236 344.852 347.236C343.628 347.236 342.372 347.001 341.085 346.53C339.829 346.059 338.636 345.353 337.506 344.411C336.376 343.469 335.372 342.292 334.493 340.88C333.614 339.467 332.939 337.819 332.468 335.935C332.06 334.24 331.793 332.733 331.667 331.415C331.542 330.096 331.479 328.731 331.479 327.318C331.479 325.529 331.73 323.677 332.232 321.762C332.766 319.847 333.519 317.979 334.493 316.158C335.497 314.306 336.706 312.548 338.118 310.884C339.562 309.221 341.179 307.761 342.969 306.505C344.789 305.218 346.798 304.166 348.996 303.35C351.193 302.534 353.532 302.063 356.012 301.938C354.882 299.991 353.673 298.343 352.386 296.993C351.099 295.644 349.796 294.419 348.478 293.32ZM404.842 311.826C404.842 309.943 404.701 308.593 404.419 307.777C404.167 306.96 403.822 306.552 403.383 306.552C402.818 306.552 402.205 306.678 401.546 306.929C400.918 307.18 400.29 307.494 399.663 307.871C399.066 308.247 398.501 308.671 397.967 309.142C397.465 309.613 397.041 310.068 396.696 310.508C395.597 311.983 394.373 313.725 393.023 315.734C391.673 317.712 390.418 319.753 389.256 321.856C388.095 323.928 387.106 325.937 386.29 327.883C385.505 329.798 385.112 331.446 385.112 332.827C385.112 333.863 385.254 334.695 385.536 335.323C385.819 335.951 386.368 336.281 387.184 336.312C387.624 336.312 388.283 336.014 389.162 335.417C390.072 334.821 391.045 334.067 392.081 333.157C393.149 332.215 394.2 331.195 395.236 330.096C396.272 328.966 397.151 327.899 397.873 326.894C398.658 325.796 399.459 324.618 400.275 323.363C401.122 322.076 401.876 320.773 402.535 319.454C403.226 318.105 403.775 316.786 404.183 315.499C404.623 314.181 404.842 312.956 404.842 311.826ZM435.544 328.825C435.544 329.453 435.324 330.285 434.885 331.321C434.445 332.325 433.817 333.408 433.001 334.57C432.216 335.731 431.259 336.908 430.129 338.101C429.03 339.263 427.806 340.314 426.456 341.256C425.137 342.198 423.725 342.967 422.218 343.564C420.711 344.16 419.141 344.458 417.509 344.458C413.962 344.458 411.121 343.281 408.986 340.927C406.883 338.541 405.596 335.15 405.125 330.756C403.775 332.765 402.205 334.664 400.416 336.453C398.627 338.211 396.79 339.765 394.907 341.115C393.023 342.433 391.171 343.485 389.35 344.27C387.561 345.023 385.976 345.4 384.594 345.4C383.37 345.4 382.209 345.133 381.11 344.599C380.011 344.034 379.038 343.281 378.19 342.339C377.374 341.397 376.715 340.314 376.213 339.09C375.71 337.866 375.459 336.579 375.459 335.229C375.459 334.036 375.569 332.78 375.789 331.462C376.009 330.112 376.354 328.668 376.825 327.13C377.296 325.592 377.908 323.912 378.661 322.091C379.446 320.271 380.404 318.277 381.534 316.111C382.789 313.694 384.296 311.402 386.054 309.236C387.844 307.039 389.664 305.124 391.516 303.492C393.4 301.828 395.189 300.509 396.884 299.536C398.611 298.563 400.024 298.076 401.122 298.076C401.499 298.076 401.891 298.139 402.3 298.265C402.708 298.359 403.1 298.484 403.477 298.641C403.853 298.767 404.183 298.893 404.466 299.018C404.748 299.144 404.952 299.207 405.078 299.207C405.078 299.207 405.172 299.144 405.36 299.018C405.549 298.893 405.768 298.767 406.02 298.641C406.302 298.484 406.616 298.359 406.961 298.265C407.307 298.139 407.652 298.076 407.997 298.076C408.531 298.076 409.096 298.233 409.692 298.547C410.32 298.83 410.917 299.222 411.482 299.724C412.047 300.195 412.533 300.729 412.941 301.325C413.381 301.922 413.679 302.518 413.836 303.115C413.93 303.492 414.009 303.758 414.072 303.915C414.166 304.041 414.26 304.166 414.354 304.292C414.699 304.637 414.998 305.045 415.249 305.516C415.5 305.956 415.626 306.584 415.626 307.4C415.626 307.777 415.516 308.467 415.296 309.472C415.108 310.445 414.872 311.559 414.59 312.815C414.338 314.071 414.103 315.389 413.883 316.77C413.695 318.12 413.601 319.36 413.601 320.49C413.601 323.41 413.726 325.827 413.977 327.742C414.229 329.657 414.574 331.164 415.013 332.262C415.484 333.361 416.018 334.13 416.614 334.57C417.242 335.009 417.917 335.229 418.639 335.229C419.267 335.229 419.958 335.135 420.711 334.946C421.496 334.758 422.281 334.491 423.065 334.146C423.85 333.769 424.635 333.314 425.42 332.78C426.205 332.215 426.927 331.556 427.586 330.803C428.685 329.578 429.689 328.59 430.6 327.836C431.51 327.083 432.389 326.706 433.236 326.706C433.958 326.706 434.524 326.894 434.932 327.271C435.34 327.648 435.544 328.166 435.544 328.825ZM538.102 330.049C538.102 330.426 537.945 330.913 537.631 331.509C537.317 332.105 536.909 332.749 536.407 333.44C535.904 334.13 535.355 334.837 534.758 335.559C534.162 336.249 533.581 336.877 533.016 337.442C529.406 341.146 525.859 343.972 522.374 345.918C518.921 347.833 515.233 348.79 511.309 348.79C509.488 348.79 507.887 348.523 506.506 347.99C505.156 347.488 503.994 346.718 503.021 345.683C502.048 344.615 501.247 343.297 500.62 341.727C500.023 340.158 499.552 338.321 499.207 336.218C498.862 334.052 498.328 332.545 497.606 331.697C496.884 330.85 496.036 330.426 495.063 330.426C494.561 330.426 494.012 330.489 493.415 330.614C492.85 330.74 492.316 330.897 491.814 331.085C491.312 331.274 490.872 331.493 490.496 331.744C490.15 331.964 489.946 332.2 489.883 332.451C489.632 333.204 489.413 334.005 489.224 334.852C489.067 335.7 488.91 336.626 488.753 337.63C488.596 338.635 488.424 339.749 488.235 340.974C488.078 342.167 487.859 343.501 487.576 344.976C487.451 345.604 487.168 346.185 486.729 346.718C486.32 347.221 485.834 347.66 485.269 348.037C484.704 348.414 484.092 348.696 483.432 348.885C482.805 349.104 482.224 349.214 481.69 349.214C480.372 349.214 479.226 348.806 478.253 347.99C477.28 347.205 476.793 346.059 476.793 344.552C476.793 344.27 476.871 343.752 477.028 342.998C477.185 342.214 477.389 341.225 477.641 340.032C477.986 338.462 478.378 336.579 478.818 334.381C479.257 332.153 479.681 329.673 480.089 326.941C480.497 324.179 480.858 321.197 481.172 317.995C481.486 314.761 481.69 311.387 481.784 307.871C481.784 307.4 481.941 306.882 482.255 306.317C482.601 305.752 483.009 305.218 483.479 304.716C483.982 304.214 484.531 303.79 485.128 303.444C485.755 303.099 486.368 302.926 486.964 302.926C487.874 302.926 488.722 303.068 489.507 303.35C490.292 303.601 490.967 303.947 491.532 304.386C492.097 304.826 492.536 305.344 492.85 305.94C493.195 306.537 493.368 307.164 493.368 307.824C493.368 308.86 493.305 310.037 493.18 311.355C493.054 312.674 492.866 314.039 492.615 315.452C492.395 316.865 492.128 318.309 491.814 319.784C491.5 321.228 491.139 322.625 490.731 323.975C492.709 323.441 494.514 322.782 496.146 321.997C497.779 321.212 499.285 320.114 500.667 318.701C501.295 318.073 502.032 317.163 502.88 315.97C503.759 314.777 504.669 313.506 505.611 312.156C506.553 310.806 507.479 309.487 508.389 308.2C509.331 306.913 510.178 305.846 510.932 304.998C511.371 304.527 511.858 304.072 512.392 303.633C512.957 303.193 513.537 302.817 514.134 302.503C514.762 302.189 515.374 301.938 515.97 301.749C516.598 301.561 517.195 301.467 517.76 301.467C519.549 301.467 520.946 301.953 521.951 302.926C522.986 303.868 523.504 305.077 523.504 306.552C523.504 307.934 523.002 309.111 521.998 310.084C520.993 311.026 519.69 311.952 518.089 312.862C516.928 313.521 515.813 314.4 514.746 315.499C513.71 316.598 512.643 317.759 511.544 318.984C510.477 320.176 509.347 321.369 508.154 322.562C506.992 323.755 505.689 324.775 504.245 325.623C504.716 325.811 505.187 326.062 505.658 326.376C506.129 326.69 506.568 327.13 506.976 327.695C507.416 328.26 507.824 328.966 508.201 329.814C508.577 330.661 508.891 331.697 509.143 332.922C509.394 334.177 509.676 335.26 509.99 336.171C510.304 337.05 510.681 337.787 511.12 338.384C511.56 338.949 512.093 339.373 512.721 339.655C513.38 339.906 514.181 340.032 515.123 340.032C517.257 340.032 519.455 339.404 521.715 338.148C523.975 336.861 526.236 335.135 528.496 332.969C529.343 332.153 530.081 331.415 530.709 330.756C531.337 330.096 531.902 329.531 532.404 329.06C532.906 328.59 533.377 328.229 533.817 327.977C534.256 327.695 534.727 327.554 535.229 327.554C535.92 327.554 536.564 327.773 537.16 328.213C537.788 328.652 538.102 329.264 538.102 330.049ZM553.688 309.707C553.625 309.174 553.5 308.687 553.311 308.247C553.123 307.808 552.715 307.588 552.087 307.588C550.831 307.588 549.67 308.106 548.602 309.142C547.535 310.178 546.531 311.591 545.589 313.38C544.678 315.138 543.846 317.194 543.093 319.549C542.34 321.903 541.649 324.43 541.021 327.13C541.272 326.941 541.555 326.69 541.869 326.376C542.214 326.062 542.544 325.749 542.858 325.435C543.203 325.089 543.517 324.775 543.799 324.493C544.113 324.179 544.364 323.928 544.553 323.739C546.436 321.762 547.975 320.051 549.167 318.607C550.36 317.131 551.286 315.86 551.946 314.793C552.636 313.694 553.091 312.752 553.311 311.967C553.562 311.151 553.688 310.398 553.688 309.707ZM588.58 314.557C588.58 314.84 588.47 315.373 588.251 316.158C588.031 316.943 587.623 317.712 587.026 318.466C583.448 323.017 579.947 327.287 576.526 331.274C573.104 335.229 569.745 338.682 566.449 341.633C563.153 344.552 559.919 346.86 556.749 348.555C553.609 350.25 550.533 351.098 547.519 351.098C544.694 351.098 542.261 350.642 540.221 349.732C538.18 348.822 536.485 347.55 535.135 345.918C533.817 344.254 532.844 342.261 532.216 339.938C531.588 337.615 531.274 335.041 531.274 332.215C531.274 330.081 531.478 327.82 531.886 325.435C532.263 323.049 532.859 320.663 533.675 318.277C534.46 315.891 535.465 313.553 536.689 311.261C537.945 308.969 539.42 306.866 541.115 304.951C541.837 304.135 542.685 303.335 543.658 302.55C544.631 301.765 545.667 301.074 546.766 300.478C547.865 299.85 549.01 299.348 550.203 298.971C551.396 298.563 552.558 298.359 553.688 298.359C555.006 298.359 556.215 298.626 557.314 299.159C558.444 299.693 559.401 300.399 560.186 301.278C560.971 302.126 561.583 303.115 562.023 304.245C562.462 305.344 562.682 306.489 562.682 307.682C562.682 308.907 562.462 310.272 562.023 311.779C561.614 313.286 560.987 314.855 560.139 316.488C559.291 318.12 558.24 319.768 556.984 321.432C555.76 323.096 554.347 324.697 552.746 326.235C552.15 326.8 551.412 327.459 550.533 328.213C549.685 328.966 548.759 329.767 547.755 330.614C546.782 331.462 545.761 332.325 544.694 333.204C543.627 334.052 542.607 334.837 541.633 335.559C541.665 336.249 541.822 336.971 542.104 337.725C542.387 338.447 542.811 339.122 543.376 339.749C543.941 340.346 544.663 340.848 545.542 341.256C546.421 341.633 547.472 341.821 548.697 341.821C550.925 341.821 553.343 341.052 555.948 339.514C558.554 337.944 561.285 335.888 564.141 333.345C566.998 330.803 569.933 327.915 572.947 324.681C575.992 321.416 579.053 318.089 582.129 314.699C582.569 314.196 583.134 313.678 583.824 313.145C584.515 312.611 585.331 312.344 586.273 312.344C586.461 312.344 586.681 312.407 586.932 312.532C587.215 312.627 587.466 312.784 587.686 313.003C587.937 313.192 588.141 313.427 588.298 313.71C588.486 313.961 588.58 314.243 588.58 314.557ZM661.849 313.192C661.849 313.757 661.645 314.416 661.237 315.169C660.861 315.923 660.358 316.739 659.73 317.618C659.134 318.466 658.459 319.345 657.706 320.255C656.984 321.165 656.262 322.044 655.54 322.892C653.154 325.749 650.737 328.37 648.288 330.756C645.871 333.11 643.501 335.135 641.178 336.83C638.855 338.525 636.61 339.844 634.444 340.785C632.309 341.727 630.3 342.198 628.417 342.198C626.314 342.198 624.524 341.711 623.049 340.738C621.605 339.765 620.412 338.462 619.47 336.83C618.56 335.198 617.9 333.33 617.492 331.226C617.084 329.123 616.849 326.926 616.786 324.634C616.221 325.984 615.546 327.334 614.761 328.684C613.976 330.002 613.145 331.274 612.266 332.498C611.387 333.691 610.508 334.789 609.629 335.794C608.75 336.799 607.949 337.63 607.227 338.29C606.034 339.357 604.841 340.362 603.648 341.303C602.487 342.214 601.247 343.014 599.928 343.705C598.61 344.395 597.197 344.945 595.691 345.353C594.184 345.73 592.52 345.918 590.699 345.918C589.13 345.918 587.748 345.604 586.555 344.976C585.394 344.317 584.421 343.469 583.636 342.433C582.851 341.397 582.255 340.22 581.847 338.902C581.47 337.552 581.282 336.202 581.282 334.852C581.282 333.659 581.376 332.435 581.564 331.179C581.784 329.892 582.019 328.605 582.27 327.318C582.522 326.031 582.757 324.76 582.977 323.504C583.228 322.217 583.401 320.961 583.495 319.737C583.558 318.827 583.62 317.853 583.683 316.817C583.746 315.782 583.809 314.746 583.871 313.71C583.966 312.642 584.06 311.591 584.154 310.555C584.28 309.487 584.421 308.499 584.578 307.588C584.703 306.929 584.876 306.301 585.096 305.705C585.315 305.108 585.629 304.59 586.037 304.151C586.446 303.68 586.964 303.319 587.591 303.068C588.251 302.785 589.067 302.644 590.04 302.644C592.049 302.644 593.446 303.24 594.231 304.433C595.047 305.595 595.455 307.368 595.455 309.754C595.455 310.288 595.408 311.057 595.314 312.062C595.22 313.035 595.094 314.086 594.937 315.216C594.78 316.315 594.608 317.414 594.419 318.513C594.262 319.58 594.09 320.49 593.901 321.244C593.399 323.378 592.897 325.435 592.394 327.412C591.924 329.39 591.688 331.164 591.688 332.733C591.688 333.832 591.829 334.695 592.112 335.323C592.394 335.92 592.802 336.218 593.336 336.218C594.937 336.218 596.554 335.716 598.186 334.711C599.819 333.706 601.404 332.372 602.942 330.708C604.512 329.045 606.019 327.13 607.463 324.964C608.938 322.766 610.288 320.506 611.512 318.183C612.768 315.86 613.898 313.537 614.903 311.214C615.907 308.86 616.723 306.694 617.351 304.716C617.634 303.868 617.995 303.162 618.434 302.597C618.874 302 619.344 301.53 619.847 301.184C620.349 300.839 620.851 300.588 621.354 300.431C621.887 300.274 622.374 300.195 622.813 300.195C624.226 300.195 625.293 300.415 626.015 300.855C626.737 301.263 627.098 302.142 627.098 303.492C627.098 304.088 627.02 304.936 626.863 306.034C626.706 307.102 626.549 308.232 626.392 309.425C626.235 310.806 626.094 311.952 625.968 312.862C625.874 313.772 625.796 314.604 625.733 315.358C625.67 316.111 625.623 316.849 625.592 317.571C625.592 318.293 625.592 319.14 625.592 320.114C625.592 320.93 625.623 321.73 625.686 322.515C625.748 323.269 625.811 323.865 625.874 324.304C625.968 324.964 626.109 325.764 626.298 326.706C626.486 327.616 626.722 328.511 627.004 329.39C627.287 330.238 627.632 330.96 628.04 331.556C628.448 332.153 628.95 332.451 629.547 332.451C631.273 332.451 633.126 331.98 635.103 331.038C637.081 330.096 639.137 328.809 641.272 327.177C643.407 325.544 645.573 323.614 647.77 321.385C649.999 319.156 652.212 316.77 654.409 314.228C654.692 313.882 655.006 313.521 655.351 313.145C655.728 312.768 656.105 312.423 656.481 312.109C656.889 311.763 657.313 311.497 657.753 311.308C658.192 311.088 658.647 310.979 659.118 310.979C659.778 310.979 660.39 311.167 660.955 311.544C661.551 311.92 661.849 312.47 661.849 313.192ZM626.345 278.205C626.345 278.802 626.172 279.555 625.827 280.465C625.513 281.376 625.058 282.349 624.461 283.385C623.865 284.389 623.127 285.394 622.248 286.399C621.401 287.372 620.443 288.235 619.376 288.988H619.423C618.67 289.491 617.759 289.962 616.692 290.401C615.656 290.841 614.557 291.217 613.396 291.531C612.234 291.814 611.057 292.049 609.864 292.237C608.671 292.394 607.557 292.473 606.521 292.473C604.731 292.473 603.005 292.269 601.341 291.861C599.677 291.453 598.139 290.872 596.726 290.119C595.314 289.365 594.042 288.47 592.912 287.434C591.814 286.367 590.888 285.206 590.134 283.95C589.914 283.542 589.695 283.071 589.475 282.537C589.287 281.972 589.114 281.439 588.957 280.936C588.8 280.403 588.674 279.932 588.58 279.524C588.517 279.116 588.486 278.849 588.486 278.723C588.486 277.781 588.627 277.028 588.91 276.463C589.224 275.866 589.6 275.411 590.04 275.097C590.511 274.783 590.997 274.579 591.5 274.485C592.033 274.391 592.52 274.344 592.959 274.344C594.058 274.344 595.063 274.611 595.973 275.144C596.915 275.647 597.464 276.557 597.621 277.876C597.653 278.598 597.841 279.414 598.186 280.324C598.532 281.235 599.065 282.019 599.787 282.679C600.541 283.369 601.529 283.95 602.754 284.421C603.978 284.892 605.438 285.127 607.133 285.127C607.541 285.127 608.012 285.08 608.546 284.986C609.111 284.892 609.676 284.782 610.241 284.656C610.806 284.499 611.355 284.311 611.889 284.091C612.454 283.871 612.925 283.652 613.302 283.432C613.929 283.055 614.463 282.6 614.903 282.066C615.342 281.533 615.719 280.968 616.033 280.371C616.347 279.743 616.613 279.131 616.833 278.535C617.053 277.907 617.241 277.342 617.398 276.84C617.555 276.337 617.806 275.898 618.152 275.521C618.528 275.144 618.921 274.831 619.329 274.579C619.768 274.328 620.208 274.14 620.647 274.014C621.118 273.889 621.542 273.826 621.919 273.826C623.237 273.826 624.304 274.14 625.121 274.768C625.937 275.396 626.345 276.541 626.345 278.205ZM752.918 328.872C752.918 329.5 752.62 330.316 752.023 331.321C751.458 332.294 750.752 333.283 749.904 334.287C748.46 335.982 746.859 337.693 745.101 339.42C743.343 341.146 741.522 342.7 739.639 344.082C737.755 345.431 735.825 346.53 733.847 347.378C731.869 348.257 729.907 348.696 727.961 348.696C724.822 348.696 722.373 347.645 720.615 345.541C718.889 343.407 717.774 340.362 717.272 336.406C717.209 335.81 717.147 335.15 717.084 334.428C717.021 333.706 716.974 332.953 716.942 332.168C716.911 331.383 716.88 330.599 716.848 329.814C716.817 329.029 716.801 328.276 716.801 327.554C716.801 326.298 716.801 325.058 716.801 323.834C716.801 322.578 716.77 321.464 716.707 320.49C716.676 319.517 716.613 318.732 716.519 318.136C716.425 317.508 716.283 317.194 716.095 317.194C715.718 317.194 715.294 317.492 714.824 318.089C714.353 318.685 713.772 319.611 713.081 320.867C712.422 322.091 711.622 323.645 710.68 325.529C709.769 327.412 708.686 329.641 707.431 332.215C706.363 334.381 705.406 336.186 704.558 337.63C703.711 339.043 702.895 340.173 702.11 341.021C701.325 341.868 700.54 342.481 699.755 342.857C698.971 343.203 698.123 343.375 697.213 343.375C696.491 343.375 695.784 343.25 695.094 342.998C694.403 342.747 693.759 342.402 693.163 341.963C692.598 341.523 692.08 341.021 691.609 340.456C691.17 339.891 690.84 339.31 690.62 338.713C690.181 337.521 689.851 336.077 689.631 334.381C689.443 332.655 689.223 330.646 688.972 328.354C688.784 326.659 688.611 325.105 688.454 323.692C688.297 322.248 688.14 321.024 687.983 320.019C687.826 318.984 687.654 318.183 687.465 317.618C687.308 317.053 687.104 316.77 686.853 316.77C686.414 316.77 685.943 316.974 685.441 317.383C684.97 317.759 684.467 318.262 683.934 318.889C681.956 321.307 680.151 323.739 678.519 326.188C676.886 328.605 675.395 331.022 674.045 333.44C673.668 334.13 673.213 334.931 672.68 335.841C672.146 336.751 671.597 337.678 671.032 338.619C670.466 339.561 669.901 340.471 669.336 341.35C668.803 342.229 668.316 342.983 667.877 343.611C667.563 344.019 667.076 344.38 666.417 344.694C665.758 345.008 665.051 345.274 664.298 345.494C663.576 345.683 662.87 345.839 662.179 345.965C661.488 346.059 660.955 346.106 660.578 346.106C659.762 346.106 659.087 345.824 658.553 345.259C658.051 344.694 657.643 343.909 657.329 342.904C657.015 341.868 656.795 340.66 656.67 339.279C656.575 337.866 656.528 336.328 656.528 334.664C656.528 333.283 656.607 331.713 656.764 329.955C656.952 328.197 657.172 326.392 657.423 324.54C657.706 322.656 657.988 320.789 658.271 318.936C658.585 317.084 658.867 315.373 659.118 313.804C659.432 311.889 659.668 310.241 659.825 308.86C660.013 307.447 660.107 306.285 660.107 305.375C660.107 304.276 660.484 303.35 661.237 302.597C661.991 301.843 663.027 301.467 664.345 301.467C668.552 301.467 670.655 303.978 670.655 309.001C670.655 309.66 670.561 310.539 670.372 311.638C670.184 312.705 669.949 313.898 669.666 315.216C669.383 316.504 669.07 317.853 668.724 319.266C668.379 320.679 668.034 322.06 667.688 323.41C667.374 324.728 667.076 325.968 666.794 327.13C666.542 328.291 666.338 329.264 666.181 330.049C666.433 329.704 666.778 329.155 667.217 328.401C667.688 327.616 668.175 326.784 668.677 325.905C669.211 324.995 669.713 324.132 670.184 323.316C670.686 322.468 671.094 321.793 671.408 321.291C673.072 318.654 674.642 316.3 676.117 314.228C677.624 312.156 679.052 310.366 680.402 308.86C683.227 305.689 686.414 304.104 689.961 304.104C690.966 304.104 691.845 304.323 692.598 304.763C693.351 305.171 693.995 305.736 694.529 306.458C695.094 307.149 695.549 307.965 695.894 308.907C696.239 309.817 696.522 310.79 696.742 311.826C696.93 312.705 697.103 313.694 697.26 314.793C697.417 315.86 697.558 316.959 697.683 318.089C697.84 319.219 697.982 320.365 698.107 321.526C698.233 322.656 698.343 323.739 698.437 324.775C698.594 326.314 698.719 327.444 698.814 328.166C698.939 328.856 699.065 329.374 699.19 329.72C699.347 329.5 699.645 328.919 700.085 327.977C700.556 327.036 701.058 325.968 701.592 324.775C702.157 323.551 702.722 322.327 703.287 321.103C703.883 319.878 704.386 318.874 704.794 318.089C705.955 315.891 707.054 314.024 708.09 312.485C709.157 310.947 710.209 309.707 711.245 308.765C712.312 307.792 713.411 307.086 714.541 306.646C715.671 306.207 716.911 305.987 718.261 305.987C719.642 305.987 720.804 306.223 721.745 306.694C722.719 307.164 723.519 307.824 724.147 308.671C724.806 309.487 725.308 310.476 725.654 311.638C725.999 312.768 726.266 314.024 726.454 315.405C726.611 316.472 726.705 317.759 726.737 319.266C726.8 320.741 726.847 322.264 726.878 323.834C726.909 325.372 726.941 326.894 726.972 328.401C727.004 329.877 727.082 331.179 727.208 332.309C727.459 334.507 727.883 336.312 728.479 337.725C729.076 339.106 729.907 339.796 730.975 339.796C731.665 339.796 732.56 339.53 733.659 338.996C734.757 338.462 735.982 337.709 737.332 336.736C738.682 335.763 740.094 334.617 741.57 333.298C743.076 331.98 744.552 330.52 745.996 328.919C746.686 328.166 747.424 327.554 748.209 327.083C748.994 326.612 749.763 326.376 750.516 326.376C751.144 326.376 751.694 326.628 752.164 327.13C752.667 327.632 752.918 328.213 752.918 328.872ZM767.845 309.707C767.782 309.174 767.656 308.687 767.468 308.247C767.28 307.808 766.872 307.588 766.244 307.588C764.988 307.588 763.827 308.106 762.759 309.142C761.692 310.178 760.687 311.591 759.746 313.38C758.835 315.138 758.003 317.194 757.25 319.549C756.497 321.903 755.806 324.43 755.178 327.13C755.429 326.941 755.712 326.69 756.026 326.376C756.371 326.062 756.701 325.749 757.015 325.435C757.36 325.089 757.674 324.775 757.956 324.493C758.27 324.179 758.521 323.928 758.71 323.739C760.593 321.762 762.131 320.051 763.324 318.607C764.517 317.131 765.443 315.86 766.103 314.793C766.793 313.694 767.248 312.752 767.468 311.967C767.719 311.151 767.845 310.398 767.845 309.707ZM802.737 314.557C802.737 314.84 802.627 315.373 802.407 316.158C802.188 316.943 801.78 317.712 801.183 318.466C797.604 323.017 794.104 327.287 790.683 331.274C787.261 335.229 783.902 338.682 780.606 341.633C777.309 344.552 774.076 346.86 770.906 348.555C767.766 350.25 764.69 351.098 761.676 351.098C758.851 351.098 756.418 350.642 754.378 349.732C752.337 348.822 750.642 347.55 749.292 345.918C747.974 344.254 747 342.261 746.373 339.938C745.745 337.615 745.431 335.041 745.431 332.215C745.431 330.081 745.635 327.82 746.043 325.435C746.42 323.049 747.016 320.663 747.832 318.277C748.617 315.891 749.622 313.553 750.846 311.261C752.102 308.969 753.577 306.866 755.272 304.951C755.994 304.135 756.842 303.335 757.815 302.55C758.788 301.765 759.824 301.074 760.923 300.478C762.022 299.85 763.167 299.348 764.36 298.971C765.553 298.563 766.715 298.359 767.845 298.359C769.163 298.359 770.372 298.626 771.471 299.159C772.601 299.693 773.558 300.399 774.343 301.278C775.128 302.126 775.74 303.115 776.179 304.245C776.619 305.344 776.839 306.489 776.839 307.682C776.839 308.907 776.619 310.272 776.179 311.779C775.771 313.286 775.143 314.855 774.296 316.488C773.448 318.12 772.397 319.768 771.141 321.432C769.917 323.096 768.504 324.697 766.903 326.235C766.307 326.8 765.569 327.459 764.69 328.213C763.842 328.966 762.916 329.767 761.912 330.614C760.939 331.462 759.918 332.325 758.851 333.204C757.784 334.052 756.763 334.837 755.79 335.559C755.822 336.249 755.979 336.971 756.261 337.725C756.544 338.447 756.967 339.122 757.532 339.749C758.098 340.346 758.82 340.848 759.699 341.256C760.578 341.633 761.629 341.821 762.853 341.821C765.082 341.821 767.499 341.052 770.105 339.514C772.711 337.944 775.442 335.888 778.298 333.345C781.155 330.803 784.09 327.915 787.104 324.681C790.149 321.416 793.21 318.089 796.286 314.699C796.725 314.196 797.291 313.678 797.981 313.145C798.672 312.611 799.488 312.344 800.43 312.344C800.618 312.344 800.838 312.407 801.089 312.532C801.372 312.627 801.623 312.784 801.842 313.003C802.094 313.192 802.298 313.427 802.455 313.71C802.643 313.961 802.737 314.243 802.737 314.557ZM866.118 312.062C866.118 312.595 865.929 313.207 865.553 313.898C865.207 314.557 864.768 315.248 864.234 315.97C863.701 316.661 863.12 317.335 862.492 317.995C861.896 318.654 861.33 319.219 860.797 319.69C859.227 321.103 857.328 322.625 855.099 324.257C852.902 325.858 850.422 327.506 847.659 329.202C844.928 330.865 841.962 332.545 838.76 334.24C835.558 335.935 832.167 337.583 828.588 339.184C828.494 339.247 828.133 339.514 827.505 339.985C826.909 340.424 826.156 340.958 825.245 341.586C824.335 342.182 823.33 342.842 822.232 343.564C821.164 344.254 820.113 344.898 819.077 345.494C818.072 346.091 817.146 346.593 816.298 347.001C815.482 347.378 814.854 347.566 814.415 347.566C813.599 347.566 812.783 347.44 811.966 347.189C811.15 346.97 810.412 346.671 809.753 346.295C809.094 345.887 808.545 345.431 808.105 344.929C807.697 344.395 807.493 343.862 807.493 343.328C807.493 342.229 807.838 341.241 808.529 340.362C809.251 339.451 810.271 338.666 811.59 338.007C812.751 337.379 813.693 336.861 814.415 336.453C815.137 336.045 815.781 335.668 816.346 335.323C816.911 334.978 817.46 334.617 817.994 334.24C818.527 333.863 819.187 333.408 819.971 332.875C820.819 331.682 821.761 330.222 822.797 328.495C823.864 326.737 824.853 324.901 825.763 322.986C826.705 321.04 827.49 319.125 828.118 317.241C828.745 315.326 829.059 313.631 829.059 312.156C829.059 311.716 829.028 311.261 828.965 310.79C828.902 310.319 828.808 309.896 828.683 309.519C828.588 309.142 828.447 308.828 828.259 308.577C828.102 308.326 827.898 308.2 827.647 308.2C827.019 308.2 826.328 308.404 825.575 308.812C824.821 309.221 824.068 309.739 823.315 310.366C822.561 310.963 821.823 311.606 821.101 312.297C820.411 312.988 819.783 313.615 819.218 314.181C816.079 317.445 813.301 320.773 810.883 324.163C808.498 327.554 806.473 330.881 804.809 334.146C804.526 336.594 804.291 339.122 804.103 341.727C803.946 344.301 803.789 346.891 803.632 349.497C803.506 352.134 803.349 354.723 803.161 357.266C802.973 359.84 802.69 362.305 802.313 364.659C802.031 365.444 801.764 366.182 801.513 366.872C801.293 367.594 801.011 368.206 800.665 368.709C800.32 369.242 799.849 369.666 799.253 369.98C798.688 370.294 797.903 370.451 796.898 370.451C796.396 370.451 795.831 370.325 795.203 370.074C794.575 369.823 793.979 369.478 793.414 369.038C792.849 368.599 792.378 368.096 792.001 367.531C791.624 366.966 791.436 366.37 791.436 365.742C791.436 364.8 791.514 363.56 791.671 362.022C791.828 360.515 792.017 358.993 792.236 357.455C792.456 355.948 792.66 354.551 792.849 353.264C793.037 352.008 793.163 351.145 793.225 350.674C793.351 349.669 793.492 348.241 793.649 346.389C793.837 344.505 794.026 342.402 794.214 340.079C794.403 337.756 794.575 335.307 794.732 332.733C794.92 330.128 795.093 327.616 795.25 325.199C795.407 322.751 795.533 320.475 795.627 318.371C795.752 316.268 795.831 314.557 795.862 313.239C795.925 311.638 796.019 310.194 796.145 308.907C796.302 307.588 796.584 306.474 796.992 305.563C797.4 304.653 797.966 303.962 798.688 303.492C799.41 302.989 800.383 302.738 801.607 302.738C802.423 302.738 803.161 302.895 803.82 303.209C804.479 303.523 805.06 303.931 805.562 304.433C806.065 304.936 806.441 305.501 806.693 306.128C806.975 306.756 807.116 307.4 807.116 308.059C807.116 308.656 807.054 309.44 806.928 310.413C806.834 311.355 806.693 312.36 806.504 313.427C806.347 314.494 806.175 315.562 805.986 316.629C805.798 317.665 805.609 318.56 805.421 319.313C807.054 315.86 808.749 313.035 810.507 310.837C812.265 308.64 813.897 306.85 815.404 305.469C816.377 304.559 817.413 303.68 818.512 302.832C819.642 301.953 820.803 301.184 821.996 300.525C823.22 299.834 824.46 299.285 825.716 298.877C826.972 298.437 828.227 298.218 829.483 298.218C830.864 298.218 832.167 298.532 833.391 299.159C834.647 299.756 835.73 300.541 836.641 301.514C837.582 302.456 838.32 303.523 838.854 304.716C839.419 305.909 839.701 307.086 839.701 308.247C839.701 309.44 839.544 310.884 839.23 312.58C838.916 314.275 838.446 316.033 837.818 317.853C837.221 319.674 836.468 321.495 835.558 323.316C834.679 325.105 833.658 326.722 832.497 328.166C834.726 327.098 836.923 325.953 839.089 324.728C841.287 323.473 843.406 322.17 845.446 320.82C847.518 319.47 849.496 318.105 851.379 316.723C853.263 315.311 855.021 313.914 856.653 312.532C857.501 311.873 858.223 311.261 858.819 310.696C859.416 310.131 859.949 309.66 860.42 309.283C860.891 308.875 861.346 308.561 861.786 308.342C862.225 308.09 862.727 307.965 863.292 307.965C863.858 307.965 864.328 308.122 864.705 308.436C865.082 308.718 865.364 309.079 865.553 309.519C865.772 309.958 865.914 310.413 865.976 310.884C866.071 311.324 866.118 311.716 866.118 312.062ZM937.409 313.192C937.409 313.757 937.205 314.416 936.797 315.169C936.42 315.923 935.918 316.739 935.29 317.618C934.694 318.466 934.019 319.345 933.265 320.255C932.543 321.165 931.821 322.044 931.099 322.892C928.714 325.749 926.296 328.37 923.848 330.756C921.431 333.11 919.06 335.135 916.737 336.83C914.414 338.525 912.17 339.844 910.004 340.785C907.869 341.727 905.86 342.198 903.977 342.198C901.873 342.198 900.084 341.711 898.609 340.738C897.164 339.765 895.972 338.462 895.03 336.83C894.119 335.198 893.46 333.33 893.052 331.226C892.644 329.123 892.409 326.926 892.346 324.634C891.781 325.984 891.106 327.334 890.321 328.684C889.536 330.002 888.704 331.274 887.825 332.498C886.946 333.691 886.067 334.789 885.188 335.794C884.309 336.799 883.509 337.63 882.787 338.29C881.594 339.357 880.401 340.362 879.208 341.303C878.047 342.214 876.807 343.014 875.488 343.705C874.17 344.395 872.757 344.945 871.25 345.353C869.743 345.73 868.08 345.918 866.259 345.918C864.689 345.918 863.308 345.604 862.115 344.976C860.954 344.317 859.981 343.469 859.196 342.433C858.411 341.397 857.814 340.22 857.406 338.902C857.03 337.552 856.841 336.202 856.841 334.852C856.841 333.659 856.936 332.435 857.124 331.179C857.344 329.892 857.579 328.605 857.83 327.318C858.081 326.031 858.317 324.76 858.537 323.504C858.788 322.217 858.96 320.961 859.054 319.737C859.117 318.827 859.18 317.853 859.243 316.817C859.306 315.782 859.368 314.746 859.431 313.71C859.525 312.642 859.62 311.591 859.714 310.555C859.839 309.487 859.981 308.499 860.138 307.588C860.263 306.929 860.436 306.301 860.655 305.705C860.875 305.108 861.189 304.59 861.597 304.151C862.005 303.68 862.523 303.319 863.151 303.068C863.81 302.785 864.627 302.644 865.6 302.644C867.609 302.644 869.006 303.24 869.791 304.433C870.607 305.595 871.015 307.368 871.015 309.754C871.015 310.288 870.968 311.057 870.874 312.062C870.779 313.035 870.654 314.086 870.497 315.216C870.34 316.315 870.167 317.414 869.979 318.513C869.822 319.58 869.649 320.49 869.461 321.244C868.959 323.378 868.456 325.435 867.954 327.412C867.483 329.39 867.248 331.164 867.248 332.733C867.248 333.832 867.389 334.695 867.672 335.323C867.954 335.92 868.362 336.218 868.896 336.218C870.497 336.218 872.114 335.716 873.746 334.711C875.378 333.706 876.964 332.372 878.502 330.708C880.071 329.045 881.578 327.13 883.022 324.964C884.498 322.766 885.848 320.506 887.072 318.183C888.328 315.86 889.458 313.537 890.462 311.214C891.467 308.86 892.283 306.694 892.911 304.716C893.193 303.868 893.554 303.162 893.994 302.597C894.433 302 894.904 301.53 895.407 301.184C895.909 300.839 896.411 300.588 896.913 300.431C897.447 300.274 897.934 300.195 898.373 300.195C899.786 300.195 900.853 300.415 901.575 300.855C902.297 301.263 902.658 302.142 902.658 303.492C902.658 304.088 902.58 304.936 902.423 306.034C902.266 307.102 902.109 308.232 901.952 309.425C901.795 310.806 901.654 311.952 901.528 312.862C901.434 313.772 901.355 314.604 901.293 315.358C901.23 316.111 901.183 316.849 901.151 317.571C901.151 318.293 901.151 319.14 901.151 320.114C901.151 320.93 901.183 321.73 901.245 322.515C901.308 323.269 901.371 323.865 901.434 324.304C901.528 324.964 901.669 325.764 901.858 326.706C902.046 327.616 902.281 328.511 902.564 329.39C902.846 330.238 903.192 330.96 903.6 331.556C904.008 332.153 904.51 332.451 905.107 332.451C906.833 332.451 908.685 331.98 910.663 331.038C912.641 330.096 914.697 328.809 916.832 327.177C918.966 325.544 921.132 323.614 923.33 321.385C925.559 319.156 927.772 316.77 929.969 314.228C930.252 313.882 930.566 313.521 930.911 313.145C931.288 312.768 931.664 312.423 932.041 312.109C932.449 311.763 932.873 311.497 933.312 311.308C933.752 311.088 934.207 310.979 934.678 310.979C935.337 310.979 935.949 311.167 936.514 311.544C937.111 311.92 937.409 312.47 937.409 313.192ZM959.305 334.805C959.305 334.083 959.337 333.283 959.399 332.404C959.462 331.493 959.525 330.583 959.588 329.673C959.682 328.762 959.776 327.899 959.87 327.083C959.964 326.235 960.059 325.513 960.153 324.917C959.337 325.388 958.348 325.843 957.186 326.282C956.056 326.69 954.863 327.067 953.607 327.412C952.352 327.758 951.112 328.072 949.888 328.354C948.663 328.637 947.549 328.888 946.544 329.107C945.571 329.327 944.771 329.516 944.143 329.673C943.515 329.83 943.185 329.955 943.154 330.049C943.06 330.332 942.966 330.834 942.871 331.556C942.777 332.247 942.699 333.063 942.636 334.005C942.573 334.915 942.51 335.888 942.448 336.924C942.416 337.96 942.385 338.965 942.353 339.938C942.353 340.88 942.338 341.743 942.306 342.528C942.306 343.312 942.306 343.893 942.306 344.27C942.306 344.866 942.118 345.478 941.741 346.106C941.396 346.734 940.941 347.299 940.376 347.801C939.811 348.335 939.167 348.759 938.445 349.073C937.754 349.387 937.08 349.544 936.42 349.544C935.51 349.544 934.725 349.387 934.066 349.073C933.407 348.759 932.857 348.382 932.418 347.943C932.01 347.535 931.696 347.111 931.476 346.671C931.288 346.2 931.178 345.839 931.146 345.588C931.146 344.898 931.178 344.019 931.241 342.951C931.335 341.884 931.445 340.723 931.57 339.467C931.727 338.18 931.884 336.846 932.041 335.464C932.229 334.083 932.418 332.733 932.606 331.415C932.795 330.002 932.967 328.464 933.124 326.8C933.281 325.105 933.407 323.363 933.501 321.573C933.595 319.784 933.674 317.995 933.736 316.205C933.83 314.416 933.893 312.737 933.925 311.167C933.956 309.566 933.972 308.138 933.972 306.882C934.003 305.595 934.019 304.559 934.019 303.774C934.019 302.864 934.129 302.032 934.348 301.278C934.568 300.494 934.898 299.803 935.337 299.207C935.808 298.61 936.405 298.155 937.127 297.841C937.849 297.496 938.728 297.323 939.764 297.323C940.329 297.323 940.941 297.496 941.6 297.841C942.259 298.155 942.856 298.563 943.389 299.065C943.954 299.536 944.41 300.07 944.755 300.666C945.132 301.231 945.32 301.749 945.32 302.22C945.32 303.821 945.226 305.485 945.037 307.211C944.849 308.907 944.629 310.523 944.378 312.062C944.158 313.6 943.954 314.997 943.766 316.252C943.578 317.508 943.484 318.497 943.484 319.219C943.484 319.69 943.719 320.067 944.19 320.349C944.692 320.6 945.744 320.726 947.345 320.726C949.197 320.726 950.845 320.585 952.289 320.302C953.764 319.988 955.036 319.611 956.103 319.172C957.202 318.732 958.097 318.277 958.787 317.806C959.478 317.335 959.964 316.943 960.247 316.629C960.592 316.221 960.906 315.562 961.189 314.651C961.471 313.741 961.738 312.737 961.989 311.638C962.272 310.539 962.507 309.409 962.696 308.247C962.915 307.055 963.104 306.003 963.261 305.093C963.512 303.774 963.841 302.675 964.249 301.796C964.658 300.917 965.113 300.227 965.615 299.724C966.149 299.191 966.714 298.83 967.31 298.641C967.907 298.422 968.534 298.312 969.194 298.312C971.077 298.312 972.458 298.767 973.337 299.677C974.216 300.588 974.656 301.812 974.656 303.35C974.656 303.853 974.577 304.48 974.42 305.234C974.263 305.987 974.059 306.772 973.808 307.588C973.589 308.404 973.337 309.236 973.055 310.084C972.772 310.931 972.506 311.716 972.254 312.438C972.003 313.129 971.784 313.741 971.595 314.275C971.438 314.808 971.328 315.169 971.266 315.358C971.014 316.331 970.763 317.414 970.512 318.607C970.292 319.8 970.088 321.024 969.9 322.28C969.743 323.535 969.602 324.76 969.476 325.953C969.382 327.114 969.335 328.166 969.335 329.107C969.335 330.646 969.429 331.917 969.617 332.922C969.806 333.895 970.057 334.664 970.371 335.229C970.685 335.794 971.046 336.186 971.454 336.406C971.862 336.626 972.286 336.736 972.725 336.736C973.667 336.736 974.734 336.563 975.927 336.218C977.12 335.841 978.486 335.198 980.024 334.287C981.562 333.377 983.273 332.153 985.157 330.614C987.071 329.045 989.206 327.067 991.561 324.681C992.628 323.582 993.679 322.468 994.715 321.338C995.783 320.208 996.787 319.125 997.729 318.089C998.671 317.022 999.534 316.033 1000.32 315.122C1001.1 314.212 1001.76 313.427 1002.3 312.768C1002.7 312.266 1003.19 311.748 1003.76 311.214C1004.35 310.68 1005.09 310.413 1005.97 310.413C1006.66 310.413 1007.26 310.602 1007.76 310.979C1008.29 311.324 1008.56 311.983 1008.56 312.956C1008.56 313.741 1008.18 314.73 1007.43 315.923C1006.71 317.084 1005.83 318.387 1004.79 319.831C1004.51 320.239 1004.04 320.851 1003.38 321.668C1002.72 322.484 1001.95 323.41 1001.07 324.446C1000.19 325.482 999.236 326.596 998.2 327.789C997.164 328.951 996.112 330.112 995.045 331.274C993.978 332.404 992.926 333.502 991.89 334.57C990.854 335.606 989.912 336.5 989.065 337.254C985.863 340.11 982.724 342.371 979.647 344.034C976.602 345.698 973.636 346.53 970.748 346.53C966.949 346.53 964.092 345.557 962.178 343.611C960.263 341.633 959.305 338.698 959.305 334.805ZM1062.71 313.286C1062.71 313.694 1062.44 314.322 1061.91 315.169C1061.38 316.017 1060.69 317.006 1059.84 318.136C1058.99 319.266 1058.02 320.49 1056.92 321.809C1055.82 323.096 1054.71 324.383 1053.58 325.67C1050.84 328.778 1048.05 331.744 1045.19 334.57C1042.37 337.364 1039.5 339.844 1036.58 342.01C1033.69 344.144 1030.78 345.839 1027.87 347.095C1024.95 348.382 1022.04 349.026 1019.15 349.026C1017.11 349.026 1015.26 348.743 1013.6 348.178C1011.97 347.645 1010.55 346.875 1009.36 345.871C1008.2 344.835 1007.3 343.579 1006.68 342.104C1006.05 340.628 1005.73 338.98 1005.73 337.16C1005.73 335.559 1006.02 334.052 1006.58 332.639C1007.15 331.226 1007.87 329.892 1008.75 328.637C1009.66 327.381 1010.66 326.188 1011.76 325.058C1012.89 323.896 1013.99 322.782 1015.06 321.715C1015.81 320.993 1016.52 320.286 1017.18 319.596C1017.87 318.874 1018.46 318.183 1018.97 317.524C1019.5 316.865 1019.91 316.221 1020.19 315.593C1020.5 314.934 1020.66 314.29 1020.66 313.663C1020.66 312.878 1020.5 312.313 1020.19 311.967C1019.88 311.591 1019.48 311.402 1019.01 311.402C1017.95 311.402 1016.66 311.795 1015.15 312.58C1013.64 313.333 1012.09 314.4 1010.49 315.782C1010.18 316.064 1009.77 316.394 1009.27 316.77C1008.79 317.116 1008.31 317.461 1007.81 317.806C1007.34 318.12 1006.9 318.387 1006.49 318.607C1006.11 318.827 1005.84 318.936 1005.69 318.936C1004.93 318.936 1004.34 318.842 1003.9 318.654C1003.46 318.434 1003.13 318.167 1002.91 317.853C1002.72 317.508 1002.59 317.147 1002.53 316.77C1002.47 316.362 1002.44 315.986 1002.44 315.64C1002.44 315.326 1002.66 314.793 1003.1 314.039C1003.57 313.286 1004.23 312.438 1005.07 311.497C1005.92 310.523 1006.93 309.519 1008.09 308.483C1009.25 307.416 1010.54 306.458 1011.95 305.611C1013.39 304.732 1014.92 304.01 1016.52 303.444C1018.15 302.879 1019.83 302.597 1021.56 302.597C1023.5 302.597 1025.15 302.895 1026.5 303.492C1027.85 304.088 1028.96 304.873 1029.84 305.846C1030.72 306.788 1031.35 307.855 1031.73 309.048C1032.13 310.241 1032.34 311.449 1032.34 312.674C1032.34 314.149 1032.07 315.562 1031.54 316.912C1031 318.262 1030.3 319.564 1029.42 320.82C1028.54 322.044 1027.55 323.221 1026.45 324.352C1025.39 325.482 1024.3 326.596 1023.2 327.695C1022.42 328.48 1021.67 329.249 1020.94 330.002C1020.22 330.724 1019.58 331.462 1019.01 332.215C1018.48 332.937 1018.04 333.659 1017.69 334.381C1017.38 335.072 1017.22 335.763 1017.22 336.453C1017.22 336.83 1017.29 337.222 1017.41 337.63C1017.54 338.039 1017.74 338.4 1018.02 338.713C1018.34 339.027 1018.73 339.294 1019.2 339.514C1019.7 339.702 1020.32 339.796 1021.04 339.796C1021.92 339.796 1022.87 339.64 1023.91 339.326C1024.95 339.012 1026.01 338.604 1027.11 338.101C1028.21 337.568 1029.31 336.971 1030.41 336.312C1031.54 335.653 1032.62 334.978 1033.66 334.287C1034.69 333.565 1035.67 332.859 1036.58 332.168C1037.49 331.478 1038.29 330.85 1038.98 330.285C1040.14 329.28 1041.36 328.181 1042.65 326.989C1043.97 325.764 1045.26 324.54 1046.51 323.316C1047.8 322.091 1049.02 320.914 1050.19 319.784C1051.35 318.623 1052.37 317.602 1053.25 316.723C1054.94 315.028 1056.37 313.663 1057.53 312.627C1058.72 311.591 1059.6 311.073 1060.17 311.073C1061.11 311.073 1061.77 311.261 1062.15 311.638C1062.52 311.983 1062.71 312.532 1062.71 313.286ZM1078.67 311.826C1078.67 309.943 1078.53 308.593 1078.25 307.777C1078 306.96 1077.65 306.552 1077.21 306.552C1076.65 306.552 1076.04 306.678 1075.38 306.929C1074.75 307.18 1074.12 307.494 1073.49 307.871C1072.9 308.247 1072.33 308.671 1071.8 309.142C1071.3 309.613 1070.87 310.068 1070.53 310.508C1069.43 311.983 1068.2 313.725 1066.85 315.734C1065.5 317.712 1064.25 319.753 1063.09 321.856C1061.93 323.928 1060.94 325.937 1060.12 327.883C1059.34 329.798 1058.94 331.446 1058.94 332.827C1058.94 333.863 1059.08 334.695 1059.37 335.323C1059.65 335.951 1060.2 336.281 1061.02 336.312C1061.45 336.312 1062.11 336.014 1062.99 335.417C1063.9 334.821 1064.88 334.067 1065.91 333.157C1066.98 332.215 1068.03 331.195 1069.07 330.096C1070.1 328.966 1070.98 327.899 1071.7 326.894C1072.49 325.796 1073.29 324.618 1074.11 323.363C1074.95 322.076 1075.71 320.773 1076.37 319.454C1077.06 318.105 1077.61 316.786 1078.01 315.499C1078.45 314.181 1078.67 312.956 1078.67 311.826ZM1109.37 328.825C1109.37 329.453 1109.16 330.285 1108.72 331.321C1108.28 332.325 1107.65 333.408 1106.83 334.57C1106.05 335.731 1105.09 336.908 1103.96 338.101C1102.86 339.263 1101.64 340.314 1100.29 341.256C1098.97 342.198 1097.56 342.967 1096.05 343.564C1094.54 344.16 1092.97 344.458 1091.34 344.458C1087.79 344.458 1084.95 343.281 1082.82 340.927C1080.71 338.541 1079.43 335.15 1078.96 330.756C1077.61 332.765 1076.04 334.664 1074.25 336.453C1072.46 338.211 1070.62 339.765 1068.74 341.115C1066.85 342.433 1065 343.485 1063.18 344.27C1061.39 345.023 1059.81 345.4 1058.43 345.4C1057.2 345.4 1056.04 345.133 1054.94 344.599C1053.84 344.034 1052.87 343.281 1052.02 342.339C1051.21 341.397 1050.55 340.314 1050.04 339.09C1049.54 337.866 1049.29 336.579 1049.29 335.229C1049.29 334.036 1049.4 332.78 1049.62 331.462C1049.84 330.112 1050.19 328.668 1050.66 327.13C1051.13 325.592 1051.74 323.912 1052.49 322.091C1053.28 320.271 1054.23 318.277 1055.36 316.111C1056.62 313.694 1058.13 311.402 1059.89 309.236C1061.67 307.039 1063.5 305.124 1065.35 303.492C1067.23 301.828 1069.02 300.509 1070.72 299.536C1072.44 298.563 1073.85 298.076 1074.95 298.076C1075.33 298.076 1075.72 298.139 1076.13 298.265C1076.54 298.359 1076.93 298.484 1077.31 298.641C1077.68 298.767 1078.01 298.893 1078.3 299.018C1078.58 299.144 1078.78 299.207 1078.91 299.207C1078.91 299.207 1079 299.144 1079.19 299.018C1079.38 298.893 1079.6 298.767 1079.85 298.641C1080.13 298.484 1080.45 298.359 1080.79 298.265C1081.14 298.139 1081.48 298.076 1081.83 298.076C1082.36 298.076 1082.93 298.233 1083.52 298.547C1084.15 298.83 1084.75 299.222 1085.31 299.724C1085.88 300.195 1086.36 300.729 1086.77 301.325C1087.21 301.922 1087.51 302.518 1087.67 303.115C1087.76 303.492 1087.84 303.758 1087.9 303.915C1088 304.041 1088.09 304.166 1088.19 304.292C1088.53 304.637 1088.83 305.045 1089.08 305.516C1089.33 305.956 1089.46 306.584 1089.46 307.4C1089.46 307.777 1089.35 308.467 1089.13 309.472C1088.94 310.445 1088.7 311.559 1088.42 312.815C1088.17 314.071 1087.93 315.389 1087.71 316.77C1087.53 318.12 1087.43 319.36 1087.43 320.49C1087.43 323.41 1087.56 325.827 1087.81 327.742C1088.06 329.657 1088.41 331.164 1088.84 332.262C1089.32 333.361 1089.85 334.13 1090.45 334.57C1091.07 335.009 1091.75 335.229 1092.47 335.229C1093.1 335.229 1093.79 335.135 1094.54 334.946C1095.33 334.758 1096.11 334.491 1096.9 334.146C1097.68 333.769 1098.47 333.314 1099.25 332.78C1100.04 332.215 1100.76 331.556 1101.42 330.803C1102.52 329.578 1103.52 328.59 1104.43 327.836C1105.34 327.083 1106.22 326.706 1107.07 326.706C1107.79 326.706 1108.35 326.894 1108.76 327.271C1109.17 327.648 1109.37 328.166 1109.37 328.825Z" fill="black"/>
</svg>
