<svg width="87" height="87" viewBox="0 0 87 87" fill="none" xmlns="http://www.w3.org/2000/svg">
<g clip-path="url(#clip0_636_3)">
<path d="M43.5 87C67.5244 87 87 67.5244 87 43.5C87 19.4756 67.5244 0 43.5 0C19.4756 0 0 19.4756 0 43.5C0 67.5244 19.4756 87 43.5 87Z" fill="white"/>
<path d="M45.5639 38.7664L45.5875 38.7181C46.1869 37.6586 47.2896 37.0092 48.6804 37.0092C50.4312 37.0092 51.7292 38.0631 52.139 39.6115H54.577C54.3359 38.2267 53.6502 36.9976 52.6599 36.1181L52.636 36.094C51.5814 35.1552 50.2147 34.6016 48.6562 34.6016C47.5296 34.6016 46.4748 34.9146 45.5875 35.4442L45.5639 35.4683C44.1089 36.3487 43.0873 37.8459 42.7832 39.6115H45.2228C45.3033 39.3103 45.4168 39.027 45.5639 38.7664Z" fill="#040606"/>
<path d="M35.6729 25.3122V29.1316H37.487H45.7426V26.7817H44.2789L44.8141 25.3122L46.8519 19.7701L48.2183 16.0254H45.725L44.3585 19.7701L42.3208 25.3122L41.7857 26.7817H39.9048H39.8929H38.0702V25.3122V19.7701V16.0254H35.6729V19.7701V25.3122Z" fill="#040606"/>
<path d="M61.4322 34.0635C60.4424 32.6606 59.2629 31.4241 57.9187 30.3812C55.4129 28.4369 52.7892 27.5072 50.6156 27.0781V16.0254H48.2182V29.1314H48.3586L48.3578 29.142C50.4549 29.3094 53.5671 29.984 56.4831 32.2467C57.8091 33.2756 58.9503 34.5239 59.8743 35.957L60.2704 36.5711L76.45 34.699L76.3896 38.4107L79.4983 38.2396L79.497 41.5602L59.2675 53.6663L58.1952 68.0691H16.5362L34.814 18.4624L35.6726 16.0254H33.1793L13.1641 70.4268H60.374L61.5211 55.0229L81.8444 42.9023L81.8483 31.7013L61.4322 34.0635Z" fill="#040606"/>
<path d="M53.7472 45.2871L52.043 46.9089C53.2194 48.1555 54.6092 49.1371 56.1733 49.827C57.6767 50.4901 59.2721 50.852 60.9151 50.9024L60.9867 48.5458C59.6459 48.5047 58.3441 48.2096 57.1174 47.6684C55.8415 47.1056 54.7075 46.3045 53.7472 45.2871Z" fill="#040606"/>
</g>
<defs>
<clipPath id="clip0_636_3">
<rect width="87" height="87" fill="white"/>
</clipPath>
</defs>
</svg>
