<svg width="38" height="38" viewBox="0 0 38 38" fill="none" xmlns="http://www.w3.org/2000/svg">
<path fill-rule="evenodd" clip-rule="evenodd" d="M0 19C0 29.4934 8.50659 38 19 38C29.4934 38 38 29.4934 38 19C38 8.50659 29.4934 0 19 0C8.50659 0 0 8.50659 0 19ZM11.762 30.3718V26.3162C9.22203 24.3832 7.6 21.4394 7.6 18.1425C7.6 12.32 12.6588 7.6 18.8991 7.6C25.1399 7.6 30.1982 12.32 30.1982 18.1425C30.1982 23.9646 25.1399 28.685 18.8991 28.685C17.7349 28.685 16.6112 28.5205 15.5542 28.2158L11.762 30.3718Z" fill="white"/>
<path d="M17.6925 15.2549L11.599 21.7067L17.1446 18.664L20.0421 21.7067L26.1013 15.2549L20.6172 18.2443L17.6925 15.2549V15.2549Z" fill="white"/>
</svg>
